<mxfile host="app.diagrams.net" modified="2024-02-01T09:46:04.300Z" agent="Mozilla/5.0 (Windows NT 10.0; Win64; x64) AppleWebKit/537.36 (KHTML, like Gecko) Chrome/121.0.0.0 Safari/537.36 Edg/121.0.0.0" etag="qXkf_e3FOXqBH2P_AbYG" version="23.0.2" type="github">
  <diagram name="Page-1" id="5JMnWgUcgb4x_1N-LsWm">
    <mxGraphModel dx="944" dy="536" grid="0" gridSize="10" guides="1" tooltips="1" connect="1" arrows="1" fold="1" page="1" pageScale="1" pageWidth="1100" pageHeight="850" math="0" shadow="0">
      <root>
        <mxCell id="0" />
        <mxCell id="1" parent="0" />
      </root>
    </mxGraphModel>
  </diagram>
</mxfile>
